<?xml version="1.0" encoding="utf-8"?>
<!-- Generator: Adobe Illustrator 25.0.0, SVG Export Plug-In . SVG Version: 6.00 Build 0)  -->
<svg version="1.1" xmlns="http://www.w3.org/2000/svg" xmlns:xlink="http://www.w3.org/1999/xlink" x="0px" y="0px"
	 width="440.09px" height="55px" viewBox="0 0 440.09 55" style="enable-background:new 0 0 440.09 55;" xml:space="preserve">
<style type="text/css">
	.st0{fill:#878787;}
	.st1{fill:#FFFFFF;}
	.st2{fill:#3D3D3D;}
	.st3{fill:#282828;}
	.st4{fill:#6D6E71;}
	.st5{fill:#111111;}
	.st6{fill:none;stroke:#B2B2B2;stroke-width:5;stroke-miterlimit:10;}
	.st7{fill:none;stroke:#282828;stroke-width:2;stroke-miterlimit:10;}
	.st8{fill:none;stroke:#282828;stroke-width:3;stroke-miterlimit:10;}
	.st9{fill:#B1B1B1;}
</style>
<g id="Pins">
	<g>
		<path class="st0" d="M226.22,25.61c-0.03,0.13-0.1,0.27-0.19,0.39l-0.88,1.28c-0.19,0.28-0.46,0.48-0.78,0.57l-13.26,3.98
			c-0.64,0.19-1.31-0.08-1.66-0.63c-0.07-0.11-0.12-0.23-0.17-0.36l-0.6-1.96c-0.23-0.78,0.21-1.6,0.99-1.83l13-3.9
			c0.3-0.09,0.62-0.09,0.92,0.02l1.71,0.6C226.09,24.04,226.48,24.88,226.22,25.61z"/>
		<path class="st1" d="M209.59,31c0.34,0.55,0.88,1.02,1.52,0.83l13.26-3.98c0.32-0.1,0.6-0.3,0.78-0.57l1.02-1.48L209.59,31z"/>
	</g>
	<g>
		<path class="st0" d="M233.21,33.81c-0.03,0.13-0.1,0.27-0.19,0.39l-0.88,1.28c-0.19,0.28-0.46,0.48-0.78,0.57l-13.26,3.98
			c-0.64,0.19-1.31-0.08-1.66-0.63c-0.07-0.11-0.12-0.23-0.17-0.36l-0.6-1.96c-0.23-0.78,0.21-1.6,0.99-1.83l13-3.9
			c0.3-0.09,0.62-0.09,0.92,0.02l1.71,0.6C233.08,32.24,233.46,33.08,233.21,33.81z"/>
		<path class="st1" d="M216.58,39.2c0.34,0.55,0.88,1.02,1.52,0.83l13.26-3.98c0.32-0.1,0.6-0.3,0.78-0.57l1.02-1.48L216.58,39.2z"
			/>
	</g>
	<path class="st2" d="M267.16,31.95c-0.44,0.83-0.72,1.31-0.72,1.31l-19.33-23.8c5.14-2.7,18.78-1.14,20.23-0.97
		c0.08,0.01,0.12,0.02,0.12,0.02l3.89,4.34l0.19,0.21c0.09,0.19,0.16,0.39,0.23,0.59C273.55,19.06,268.99,28.5,267.16,31.95z"/>
	<path class="st3" d="M267.16,31.95c1.4-5.93,3.76-17.44,1.72-21.86l2.66,2.97C273.9,18.35,269.06,28.37,267.16,31.95z"/>
</g>
<g id="Base">
	<path class="st4" d="M267.73,28.35c0,1.98-0.46,3.63-1.29,4.91c-2.03,3.14-6.24,3.98-11.11,1.71c-6.85-3.19-12.4-11.33-12.4-18.18
		c0-2.4,0.68-4.32,1.86-5.67c2.19-2.5,6.09-3.02,10.53-0.94C262.18,13.36,267.73,21.5,267.73,28.35z"/>
	<path class="st5" d="M248.51,19.6l0.01,0.89c0.02,1.12,0.76,2.05,1.84,2.32l1.01,0.25c0.26,0.06,0.55-0.01,0.77-0.19l3.37-2.79
		c0.23-0.19,0.35-0.48,0.32-0.76l-0.12-1.05c-0.11-0.95-0.75-1.73-1.66-2.02l-0.99-0.32c-0.27-0.09-0.58-0.02-0.82,0.17l-3.4,2.82
		C248.63,19.09,248.5,19.34,248.51,19.6z"/>
	<path class="st5" d="M254.72,26.8l0.01,0.89c0.02,1.12,0.76,2.05,1.84,2.32l1.01,0.25c0.26,0.06,0.55-0.01,0.77-0.19l3.37-2.79
		c0.23-0.19,0.35-0.48,0.32-0.76l-0.12-1.05c-0.11-0.95-0.75-1.73-1.66-2.02l-0.99-0.32c-0.27-0.09-0.58-0.02-0.82,0.17l-3.4,2.82
		C254.83,26.28,254.71,26.54,254.72,26.8z"/>
	<path class="st2" d="M225.36,39.37c-0.12,1.85-0.66,3.69-1.84,5.36c-5.33,7.54-16.67,2.45-23.41-1.61
		c-3.2-1.92-5.36-3.61-5.36-3.61c2.29-16.34,11.36-20.92,11.36-20.92s6.85-3.89,15.36,8.2C221.47,26.79,225.79,33.11,225.36,39.37z"
		/>
	<path class="st6" d="M269.43,10.88c5.35-4.74,27.97,5.85,37.65,8.84c10.29,3.18,125,24.76,62.99,3.41s3.65-11.4,21.38-2.92
		c16.53,7.91,32.93,17.43,17.11,0s37.2,11.44,37.2,11.44"/>
	<path class="st7" d="M270.51,12.22c6.15-3.73,27.55,6.93,37.01,9.62c10.36,2.94,124.33,24.59,62.32,3.24s4.53-11.19,22.26-2.71
		c16.53,7.91,31.36,16.18,15.29-0.92C391.27,4.3,445.76,33.6,445.76,33.6"/>
	<path class="st6" d="M-3.5,34.31c0,0,209.79,0.43,119.99-5.13s-156.51-5.13-76.55-8.12s123.16-3.42,127.43,3.85
		s-7.7,4.29-15.39,9.42c-7.7,5.12,21.18,5.4,47.27,2.41"/>
	<path class="st8" d="M-3.5,36.76c0,0,209.79,0.43,119.99-5.13S-40.03,26.5,39.94,23.5s123.16-3.42,127.43,3.85
		s-7.7,4.29-15.39,9.42c-7.7,5.12,21.18,5.4,47.27,2.41"/>
	<path class="st6" d="M200.46,36.45c0.34,0.84,0.61,2.73,0.13,2.92c-0.48,0.19-1.76-1.12-2.1-1.97c-0.34-0.84-0.25-2.19,0.23-2.39
		C199.2,34.82,200.12,35.6,200.46,36.45z"/>
	<path class="st3" d="M225.36,39.37c-0.12,1.85-0.66,3.69-1.84,5.36c-5.33,7.54-16.67,2.45-23.41-1.61
		C211.34,44.1,222.17,40.54,225.36,39.37z"/>
	<path class="st9" d="M271.77,13.65c-0.84-0.29-1.91-1.13-2.87-2.32c-0.8-0.99-1.34-2.02-1.56-2.84c0.08,0.01,0.12,0.02,0.12,0.02
		l3.89,4.34l0.19,0.21C271.63,13.25,271.7,13.45,271.77,13.65z"/>
	<path class="st3" d="M195.84,38.03l3.85-0.58c0,0,0.68,3.34-2.13,3.42C197.56,40.87,195.84,39.75,195.84,38.03z"/>
</g>
</svg>
